<svg width="24" height="24" viewBox="0 0 24 24" fill="none" xmlns="http://www.w3.org/2000/svg">
<path d="M11.6186 6.76287C13.6391 6.76287 15.5769 7.56554 17.0057 8.9943C18.4345 10.4231 19.2371 12.3609 19.2371 14.3814C19.2371 16.402 18.4345 18.3398 17.0057 19.7686C15.5769 21.1973 13.6391 22 11.6186 22C9.598 22 7.66018 21.1973 6.23143 19.7686C4.80267 18.3398 4 16.402 4 14.3814C4 12.3609 4.80267 10.4231 6.23143 8.9943C7.66018 7.56554 9.598 6.76287 11.6186 6.76287V6.76287ZM11.6186 10.096L10.359 12.6482L7.54263 13.0571L9.5806 15.043L9.09936 17.8492L11.6186 16.5235L14.1378 17.8479L13.6565 15.043L15.6945 13.0571L12.8782 12.6469L11.6186 10.096ZM12.5709 2L17.3325 2.00127V4.85823L16.0348 5.94261C14.9576 5.3773 13.7815 5.02507 12.5709 4.90521V2.00127V2ZM10.6662 2V4.90521C9.45617 5.02486 8.28051 5.37665 7.20361 5.94134L5.90464 4.85823V2.00127H10.6662V2Z" fill="black"/>
</svg>
