<svg width="24" height="24" viewBox="0 0 24 24" fill="none" xmlns="http://www.w3.org/2000/svg">
<path d="M4.96882 2H18.5323C18.7893 2 19.0357 2.10207 19.2174 2.28376C19.3991 2.46545 19.5012 2.71187 19.5012 2.96882V21.515C19.5013 21.6016 19.4781 21.6867 19.4342 21.7613C19.3903 21.836 19.3271 21.8975 19.2513 21.9394C19.1755 21.9814 19.0899 22.0022 19.0033 21.9998C18.9167 21.9974 18.8324 21.9718 18.759 21.9258L11.7506 17.5302L4.74212 21.9248C4.66884 21.9708 4.58457 21.9964 4.49807 21.9988C4.41157 22.0013 4.326 21.9805 4.25024 21.9387C4.17449 21.8968 4.11132 21.8355 4.06732 21.761C4.02331 21.6865 4.00006 21.6015 4 21.515V2.96882C4 2.71187 4.10207 2.46545 4.28376 2.28376C4.46545 2.10207 4.71187 2 4.96882 2ZM17.5635 3.93764H5.93764V18.8885L11.7506 15.2448L17.5635 18.8885V3.93764Z" fill="black"/>
</svg>
