<svg width="24" height="24" viewBox="0 0 24 24" fill="none" xmlns="http://www.w3.org/2000/svg">
<path d="M10 2H14C15.0506 2 16.0909 2.20693 17.0615 2.60896C18.0321 3.011 18.914 3.60028 19.6569 4.34315C20.3997 5.08601 20.989 5.96793 21.391 6.93853C21.7931 7.90914 22 8.94943 22 10C22 11.0506 21.7931 12.0909 21.391 13.0615C20.989 14.0321 20.3997 14.914 19.6569 15.6569C18.914 16.3997 18.0321 16.989 17.0615 17.391C16.0909 17.7931 15.0506 18 14 18V21.5C9 19.5 2 16.5 2 10C2 7.87827 2.84286 5.84344 4.34315 4.34315C5.84344 2.84286 7.87827 2 10 2V2ZM12 16H14C15.387 15.9981 16.7306 15.5158 17.8021 14.6352C18.8737 13.7545 19.6072 12.5299 19.8778 11.1695C20.1484 9.80911 19.9394 8.39701 19.2864 7.17332C18.6334 5.94962 17.5767 4.98989 16.296 4.45733C15.5681 4.15561 14.7879 4.00021 14 4H10C8.4087 4 6.88258 4.63214 5.75736 5.75736C4.63214 6.88258 4 8.4087 4 10C4 13.6093 6.46133 15.9667 12 18.48V16Z" fill="black"/>
</svg>
