<svg width="24" height="24" viewBox="0 0 24 24" fill="none" xmlns="http://www.w3.org/2000/svg">
<path d="M15.78 22V14.26H18.3722L18.76 11.2511H15.78V9.33111C15.78 8.46 16.0222 7.86556 17.2711 7.86556H18.8644V5.17444C18.0931 5.0926 17.3179 5.05291 16.5422 5.05556C14.2456 5.05556 12.6733 6.45778 12.6733 9.03333V11.2511H10.0756V14.26H12.6733V22H3.11111C2.81643 22 2.53381 21.8829 2.32544 21.6746C2.11706 21.4662 2 21.1836 2 20.8889V3.11111C2 2.81643 2.11706 2.53381 2.32544 2.32544C2.53381 2.11706 2.81643 2 3.11111 2H20.8889C21.1836 2 21.4662 2.11706 21.6746 2.32544C21.8829 2.53381 22 2.81643 22 3.11111V20.8889C22 21.1836 21.8829 21.4662 21.6746 21.6746C21.4662 21.8829 21.1836 22 20.8889 22H15.78V22Z" fill="black"/>
</svg>
