<svg width="24" height="24" viewBox="0 0 24 24" fill="none" xmlns="http://www.w3.org/2000/svg">
<path d="M3.45734 12.9884C2.57255 11.9566 2.06099 10.6569 2.00512 9.29877C1.94925 7.94069 2.35232 6.60335 3.14938 5.50234C3.94643 4.40132 5.09101 3.60078 6.39863 3.22976C7.70625 2.85874 9.10071 2.93885 10.3572 3.45718H10.3554L6.40699 7.40742L7.72312 8.72355L11.6715 4.77517C12.8061 3.64048 14.3449 3.00297 15.9495 3.00288C17.5541 3.0028 19.093 3.64014 20.2277 4.7747C21.3624 5.90927 21.9999 7.44811 22 9.05272C22.0001 10.6573 21.3627 12.1962 20.2282 13.3309L12.001 21.5572L3.44524 13.0014L3.45734 12.9884V12.9884Z" fill="black"/>
</svg>
