<svg width="24" height="24" viewBox="0 0 24 24" fill="none" xmlns="http://www.w3.org/2000/svg">
<path d="M20.5451 12.9888L20.5575 13.0024L12.002 21.5579L3.44661 13.0024L3.45902 12.99C2.465 11.8319 1.94546 10.3408 2.00454 8.81569C2.06361 7.29059 2.69694 5.84417 3.77757 4.76637C4.8582 3.68856 6.30627 3.05903 7.83152 3.00394C9.35677 2.94886 10.8465 3.47231 12.002 4.46935C13.1577 3.47399 14.6467 2.95188 16.1709 3.00755C17.6952 3.06322 19.1421 3.69256 20.2221 4.76957C21.3021 5.84659 21.9354 7.29179 21.9953 8.81586C22.0552 10.3399 21.5372 11.8304 20.5451 12.9888V12.9888ZM5.09093 6.09134C4.702 6.48026 4.39348 6.94199 4.183 7.45014C3.97251 7.9583 3.86417 8.50294 3.86417 9.05297C3.86417 9.603 3.97251 10.1476 4.183 10.6558C4.39348 11.164 4.702 11.6257 5.09093 12.0146L12.002 18.927L18.9131 12.0159C19.6986 11.2304 20.1399 10.165 20.1399 9.05421C20.1399 7.94338 19.6986 6.87805 18.9131 6.09258C18.1277 5.3071 17.0623 4.86583 15.9515 4.86583C14.8407 4.86583 13.7753 5.3071 12.9899 6.09258L9.03978 10.0414L7.72433 8.72349L10.6667 5.77984C9.86195 5.1371 8.84857 4.81342 7.82022 4.87066C6.79187 4.92789 5.82066 5.36202 5.09217 6.09009V6.09134H5.09093Z" fill="black"/>
</svg>
