<svg width="24" height="24" viewBox="0 0 24 24" fill="none" xmlns="http://www.w3.org/2000/svg">
<path fill-rule="evenodd" clip-rule="evenodd" d="M6.44444 12.2222C6.44444 12.8116 6.21032 13.3768 5.79357 13.7936C5.37682 14.2103 4.81159 14.4444 4.22222 14.4444C3.63285 14.4444 3.06762 14.2103 2.65087 13.7936C2.23413 13.3768 2 12.8116 2 12.2222C2 11.6329 2.23413 11.0676 2.65087 10.6509C3.06762 10.2341 3.63285 10 4.22222 10C4.81159 10 5.37682 10.2341 5.79357 10.6509C6.21032 11.0676 6.44444 11.6329 6.44444 12.2222ZM14.2222 12.2222C14.2222 12.8116 13.9881 13.3768 13.5713 13.7936C13.1546 14.2103 12.5894 14.4444 12 14.4444C11.4106 14.4444 10.8454 14.2103 10.4287 13.7936C10.0119 13.3768 9.77778 12.8116 9.77778 12.2222C9.77778 11.6329 10.0119 11.0676 10.4287 10.6509C10.8454 10.2341 11.4106 10 12 10C12.5894 10 13.1546 10.2341 13.5713 10.6509C13.9881 11.0676 14.2222 11.6329 14.2222 12.2222V12.2222ZM19.7778 14.4444C20.3671 14.4444 20.9324 14.2103 21.3491 13.7936C21.7659 13.3768 22 12.8116 22 12.2222C22 11.6329 21.7659 11.0676 21.3491 10.6509C20.9324 10.2341 20.3671 10 19.7778 10C19.1884 10 18.6232 10.2341 18.2064 10.6509C17.7897 11.0676 17.5556 11.6329 17.5556 12.2222C17.5556 12.8116 17.7897 13.3768 18.2064 13.7936C18.6232 14.2103 19.1884 14.4444 19.7778 14.4444V14.4444Z" fill="black"/>
</svg>
