<svg width="24" height="24" viewBox="0 0 24 24" fill="none" xmlns="http://www.w3.org/2000/svg">
<path d="M19.1429 16.2857H21.0476V18.1905H2V16.2857H3.90476V9.61905C3.90476 7.59835 4.70748 5.66042 6.13633 4.23157C7.56518 2.80272 9.50311 2 11.5238 2C13.5445 2 15.4824 2.80272 16.9113 4.23157C18.3401 5.66042 19.1429 7.59835 19.1429 9.61905V16.2857ZM17.2381 16.2857V9.61905C17.2381 8.10352 16.6361 6.65007 15.5644 5.57844C14.4928 4.5068 13.0393 3.90476 11.5238 3.90476C10.0083 3.90476 8.55484 4.5068 7.4832 5.57844C6.41156 6.65007 5.80952 8.10352 5.80952 9.61905V16.2857H17.2381ZM8.66667 20.0952H14.381V22H8.66667V20.0952Z" fill="black"/>
</svg>
