<svg width="24" height="24" viewBox="0 0 24 24" fill="none" xmlns="http://www.w3.org/2000/svg">
<path d="M11.6364 2L20.2727 7V17L11.6364 22L3 17V7L11.6364 2ZM11.6364 4.10091L4.81818 8.04818V15.9518L11.6364 19.8991L18.4545 15.9518V8.04818L11.6364 4.10091ZM11.6364 15.6364C10.6719 15.6364 9.74702 15.2532 9.06507 14.5713C8.38312 13.8893 8 12.9644 8 12C8 11.0356 8.38312 10.1107 9.06507 9.4287C9.74702 8.74675 10.6719 8.36364 11.6364 8.36364C12.6008 8.36364 13.5257 8.74675 14.2077 9.4287C14.8896 10.1107 15.2727 11.0356 15.2727 12C15.2727 12.9644 14.8896 13.8893 14.2077 14.5713C13.5257 15.2532 12.6008 15.6364 11.6364 15.6364ZM11.6364 13.8182C12.1186 13.8182 12.581 13.6266 12.922 13.2856C13.263 12.9447 13.4545 12.4822 13.4545 12C13.4545 11.5178 13.263 11.0553 12.922 10.7144C12.581 10.3734 12.1186 10.1818 11.6364 10.1818C11.1542 10.1818 10.6917 10.3734 10.3507 10.7144C10.0097 11.0553 9.81818 11.5178 9.81818 12C9.81818 12.4822 10.0097 12.9447 10.3507 13.2856C10.6917 13.6266 11.1542 13.8182 11.6364 13.8182Z" fill="black"/>
</svg>
