<svg width="24" height="24" viewBox="0 0 24 24" fill="none" xmlns="http://www.w3.org/2000/svg">
<path d="M21.999 5.93039C21.25 6.26173 20.4556 6.47934 19.6423 6.57599C20.4996 6.06327 21.1412 5.25634 21.4476 4.30558C20.6431 4.78439 19.761 5.11995 18.8416 5.30146C18.2241 4.64073 17.4056 4.20252 16.5133 4.05498C15.621 3.90743 14.705 4.05881 13.9076 4.48558C13.1103 4.91235 12.4762 5.59059 12.1041 6.41488C11.732 7.23916 11.6426 8.16329 11.8499 9.04361C10.2183 8.96184 8.62219 8.53785 7.16512 7.79917C5.70805 7.06049 4.42261 6.02364 3.39227 4.75594C3.02756 5.38236 2.83591 6.09446 2.83693 6.81932C2.83693 8.242 3.56103 9.49887 4.66189 10.2347C4.01041 10.2142 3.37327 10.0383 2.80357 9.7216V9.77262C2.80377 10.7201 3.13164 11.6384 3.7316 12.3718C4.33156 13.1051 5.16668 13.6084 6.09537 13.7964C5.49059 13.9602 4.85647 13.9844 4.24097 13.867C4.50281 14.6826 5.01315 15.3958 5.70054 15.9069C6.38793 16.418 7.21794 16.7014 8.07437 16.7173C7.22317 17.3857 6.24857 17.8799 5.2063 18.1714C4.16402 18.463 3.0745 18.5464 2 18.4167C3.87568 19.6229 6.05916 20.2633 8.28925 20.2612C15.8373 20.2612 19.9651 14.0083 19.9651 8.58541C19.9651 8.4088 19.9602 8.23023 19.9523 8.05558C20.7558 7.47492 21.4492 6.75558 22 5.93137L21.999 5.93039V5.93039Z" fill="#65BBF2"/>
</svg>
