<svg width="24" height="24" viewBox="0 0 24 24" fill="none" xmlns="http://www.w3.org/2000/svg">
<path d="M6.22285 8.46666C6.23467 8.22575 5.98557 8.17302 5.85921 8.3003C4.80465 9.36395 4.20282 11.814 5.54648 14.9549C5.81375 15.8286 7.30832 17.855 6.31012 20.5286L6.30739 20.5341C6.22194 20.7659 6.49467 20.9014 6.64013 20.7732C7.90833 19.6586 8.39742 17.5068 7.64014 14.9777C7.1965 13.4713 5.86284 11.1358 6.22285 8.46666ZM3.29554 10.9558C3.34099 10.8312 3.18281 10.5767 2.99917 10.7512C2.14552 11.5631 1.80279 13.354 2.11188 14.9377C2.60916 17.5541 4.27009 18.1432 3.99009 20.9641C3.96464 21.0568 4.15009 21.3096 4.30646 21.1041C5.71193 19.2559 4.67828 17.0559 4.08736 15.644C3.17372 13.4749 3.09917 11.9003 3.29554 10.9558Z" fill="black"/>
<path fill-rule="evenodd" clip-rule="evenodd" d="M13.4748 7.74847L21.274 4.40297C21.8176 4.17024 22.2622 4.90025 21.8194 5.29844L15.803 10.6994C16.6039 12.5567 18.2921 16.4631 18.4676 16.8586C19.693 19.6141 16.5994 21.3296 15.0066 20.1159C14.8075 19.9535 14.6184 19.7793 14.4402 19.5941C13.5548 18.7168 12.2411 17.4141 9.70653 17.8877C9.96472 15.9649 9.42198 14.4904 8.90379 13.0804C8.55833 12.1422 8.22469 11.2331 8.14287 10.2403C7.82832 7.21392 11.5638 2.7584 12.412 3.01022C12.7629 3.11477 12.7084 4.12751 12.6538 5.11843C12.6075 5.98026 12.5611 6.82755 12.7838 7.04573C12.9157 7.17483 13.1729 7.43665 13.4748 7.74847ZM11.5456 16.1822L13.8184 16.6368L16.0912 18.455L17.0003 18.0004L15.1821 13.9095L13.8184 10.273L12.4548 9.36395L11.5456 8.45484L10.6365 7.09119L9.72744 9.8185L10.6365 12.0913L11.5456 16.1822Z" fill="black"/>
</svg>
