<svg width="24" height="24" viewBox="0 0 24 24" fill="none" xmlns="http://www.w3.org/2000/svg">
<path d="M6.22297 8.46682C6.23479 8.2259 5.98569 8.17317 5.85932 8.30045C4.80473 9.36413 4.20288 11.8142 5.54658 14.9553C5.81386 15.829 7.30847 17.8554 6.31025 20.5292L6.30752 20.5346C6.22206 20.7664 6.4948 20.9019 6.64026 20.7737C7.9085 19.6591 8.39761 17.5072 7.6403 14.978C7.19665 13.4716 5.86296 11.136 6.22297 8.46682V8.46682ZM3.29557 10.956C3.34103 10.8315 3.18284 10.5769 2.9992 10.7515C2.14552 11.5633 1.80278 13.3543 2.11189 14.938C2.60918 17.5545 4.27016 18.1436 3.99015 20.9646C3.96469 21.0574 4.15016 21.3101 4.30653 21.1046C5.71204 19.2564 4.67836 17.0563 4.08743 15.6444C3.17375 13.4752 3.0992 11.9006 3.29557 10.956V10.956ZM21.2736 4.40301L13.4742 7.74861C13.1724 7.43678 12.9151 7.17586 12.7832 7.04585C12.3041 6.57583 13.0678 3.20569 12.4114 3.01022C11.5632 2.7584 7.82758 7.21404 8.14214 10.2405C8.34579 12.727 10.1359 14.6862 9.70585 17.8881C12.8387 17.3026 14.1069 19.4309 15.0061 20.1155C16.5989 21.3292 19.6926 19.6146 18.4671 16.859C18.2917 16.4635 16.6034 12.557 15.8025 10.6996L21.82 5.29941C22.2618 4.8994 21.8173 4.17027 21.2736 4.40301V4.40301ZM12.7114 13.0716C12.5141 13.0513 12.3328 12.954 12.2068 12.8008C12.0808 12.6476 12.0204 12.4509 12.0387 12.2533C12.0534 12.0672 12.137 11.8932 12.2732 11.7654C12.4094 11.6376 12.5883 11.5652 12.7751 11.5624C13.2105 11.5624 13.5478 11.9442 13.5115 12.3833C13.4959 12.5804 13.4031 12.7633 13.2532 12.8922C13.1033 13.0212 12.9086 13.0856 12.7114 13.0716V13.0716Z" fill="black"/>
</svg>
